<?xml version="1.0" encoding="utf-8"?>
<svg xmlns="http://www.w3.org/2000/svg" xmlns:xlink="http://www.w3.org/1999/xlink" style="margin: auto; background: none; display: block; shape-rendering: auto;" width="263px" height="263px" viewBox="0 0 100 100" preserveAspectRatio="xMidYMid">
<g transform="translate(50 50)">
<g>
<animateTransform attributeName="transform" type="rotate" values="0;45" keyTimes="0;1" dur="0.53475935828877s" repeatCount="indefinite"></animateTransform><path d="M18.186533479473212 -5.5 L29.186533479473212 -5.5 L29.186533479473212 5.5 L18.186533479473212 5.5 A19 19 0 0 1 16.748908446137698 8.970733853085672 L16.748908446137698 8.970733853085672 L24.52708303918972 16.748908446137694 L16.748908446137698 24.527083039189716 L8.970733853085674 16.748908446137694 A19 19 0 0 1 5.5 18.186533479473212 L5.5 18.186533479473212 L5.500000000000001 29.186533479473212 L-5.499999999999997 29.186533479473212 L-5.499999999999998 18.186533479473212 A19 19 0 0 1 -8.970733853085669 16.748908446137698 L-8.970733853085669 16.748908446137698 L-16.74890844613769 24.527083039189723 L-24.52708303918972 16.748908446137698 L-16.748908446137698 8.970733853085672 A19 19 0 0 1 -18.186533479473212 5.500000000000005 L-18.186533479473212 5.500000000000005 L-29.186533479473212 5.500000000000007 L-29.186533479473212 -5.499999999999999 L-18.186533479473212 -5.500000000000001 A19 19 0 0 1 -16.748908446137698 -8.970733853085667 L-16.748908446137698 -8.970733853085667 L-24.527083039189723 -16.748908446137687 L-16.748908446137705 -24.527083039189716 L-8.97073385308568 -16.748908446137694 A19 19 0 0 1 -5.499999999999998 -18.186533479473212 L-5.499999999999998 -18.186533479473212 L-5.5 -29.186533479473212 L5.49999999999999 -29.186533479473216 L5.499999999999992 -18.186533479473216 A19 19 0 0 1 8.970733853085674 -16.748908446137698 L8.970733853085674 -16.748908446137698 L16.748908446137694 -24.527083039189723 L24.527083039189712 -16.748908446137705 L16.748908446137694 -8.970733853085681 A19 19 0 0 1 18.186533479473212 -5.499999999999999 M0 -24A24 24 0 1 0 0 24 A24 24 0 1 0 0 -24" fill="#fdfdfd"></path></g></g>
<!-- [ldio] generated by https://loading.io/ --></svg>